<svg width="24" height="24" viewBox="0 0 24 24" fill="none" xmlns="http://www.w3.org/2000/svg">
<path d="M7.00007 8V6C7.00007 4.67916 7.07099 2.93397 8.00007 2C8.92914 1.06603 10.6862 1 12.0001 1C13.314 1 15.071 1.06603 16.0001 2C16.9291 2.93397 17.0001 4.67916 17.0001 6V8H20.0001C20.2628 8 20.8142 7.81321 21.0001 8C21.1859 8.18679 21.0001 8.73583 21.0001 9V21C21.0001 21.2642 21.1859 21.8132 21.0001 22C20.8142 22.1868 20.2628 22 20.0001 22H4.00007C3.73728 22 3.18588 22.1868 3.00007 22C2.81425 21.8132 3.00007 21.2642 3.00007 21V9C3.00007 8.73583 2.81425 8.18679 3.00007 8C3.18588 7.81321 3.73728 8 4.00007 8H7.00007ZM7.00007 10H5.00007V20H19.0001V10H17.0001V12H15.0001V10H9.00007V12H7.00007V10ZM9.00007 8H15.0001V6C15.0001 5.2075 14.5575 4.56038 14.0001 4C13.4426 3.43962 12.7884 3 12.0001 3C11.2117 3 10.5575 3.43962 10.0001 4C9.44262 4.56038 9.00007 5.2075 9.00007 6V8Z" fill="#FFFFFF"/>
</svg>
