<svg width="24" height="24" viewBox="0 0 24 24" fill="none" xmlns="http://www.w3.org/2000/svg">
<path d="M12 20.9992C11.355 20.4272 10.626 19.8322 9.85502 19.1992H9.84502C7.13002 16.9792 4.05302 14.4672 2.69402 11.4572C2.24754 10.4989 2.01093 9.4563 2.00001 8.39917C1.99703 6.94866 2.57879 5.55816 3.61383 4.54194C4.64887 3.52572 6.04981 2.96957 7.50002 2.99917C8.68065 3.00104 9.83586 3.34225 10.828 3.98217C11.264 4.26514 11.6584 4.60743 12 4.99917C12.3435 4.60896 12.7381 4.26688 13.173 3.98217C14.1648 3.34213 15.3197 3.00089 16.5 2.99917C17.9502 2.96957 19.3512 3.52572 20.3862 4.54194C21.4213 5.55816 22.003 6.94866 22 8.39917C21.9898 9.45799 21.7532 10.5024 21.306 11.4622C19.947 14.4722 16.871 16.9832 14.156 19.1992L14.146 19.2072C13.374 19.8362 12.646 20.4312 12.001 21.0072L12 20.9992ZM7.50002 4.99917C6.56853 4.98751 5.6701 5.34401 5.00002 5.99117C4.35441 6.62534 3.99358 7.49422 3.99994 8.39917C4.01135 9.16967 4.18585 9.92902 4.51202 10.6272C5.15353 11.9259 6.01913 13.1012 7.06902 14.0992C8.06002 15.0992 9.20002 16.0672 10.186 16.8812C10.459 17.1062 10.737 17.3332 11.015 17.5602L11.19 17.7032C11.457 17.9212 11.733 18.1472 12 18.3692L12.013 18.3572L12.019 18.3522H12.025L12.034 18.3452H12.039H12.044L12.062 18.3302L12.103 18.2972L12.11 18.2912L12.121 18.2832H12.127L12.136 18.2752L12.8 17.7302L12.974 17.5872C13.255 17.3582 13.533 17.1312 13.806 16.9062C14.792 16.0922 15.933 15.1252 16.924 14.1202C17.9741 13.1227 18.8397 11.9477 19.481 10.6492C19.8131 9.94497 19.9901 9.17768 20.0001 8.39917C20.0042 7.49701 19.6435 6.63146 19 5.99917C18.3312 5.34909 17.4326 4.98965 16.5 4.99917C15.3619 4.9895 14.274 5.46654 13.51 6.31017L12 8.05017L10.49 6.31017C9.72609 5.46654 8.6381 4.9895 7.50002 4.99917Z" fill="#FFFFFF"/>
</svg>
